<mxfile host="app.diagrams.net" modified="2023-01-06T09:37:21.497Z" agent="5.0 (Macintosh; Intel Mac OS X 10_14_6) AppleWebKit/537.36 (KHTML, like Gecko) Chrome/108.0.0.0 Safari/537.36" version="20.8.1" etag="jxN3JUgz2-SCc_wdWqqK" type="github">
  <diagram id="YxUP2xaq_VyTug8kEJNP" name="第 1 页">
    <mxGraphModel dx="1194" dy="765" grid="1" gridSize="10" guides="1" tooltips="1" connect="1" arrows="1" fold="1" page="1" pageScale="1" pageWidth="827" pageHeight="1169" math="0" shadow="0">
      <root>
        <mxCell id="0" />
        <mxCell id="1" parent="0" />
        <mxCell id="r8q-VQcnBtVLLdjR7hib-8" style="rounded=0;orthogonalLoop=1;jettySize=auto;html=1;exitX=0.25;exitY=1;exitDx=0;exitDy=0;entryX=0.5;entryY=0;entryDx=0;entryDy=0;" edge="1" parent="1" source="r8q-VQcnBtVLLdjR7hib-2" target="r8q-VQcnBtVLLdjR7hib-7">
          <mxGeometry relative="1" as="geometry" />
        </mxCell>
        <mxCell id="r8q-VQcnBtVLLdjR7hib-9" value="1、调用老的验资" style="edgeLabel;html=1;align=center;verticalAlign=middle;resizable=0;points=[];" vertex="1" connectable="0" parent="r8q-VQcnBtVLLdjR7hib-8">
          <mxGeometry x="-0.028" y="1" relative="1" as="geometry">
            <mxPoint as="offset" />
          </mxGeometry>
        </mxCell>
        <mxCell id="r8q-VQcnBtVLLdjR7hib-12" style="edgeStyle=none;rounded=0;orthogonalLoop=1;jettySize=auto;html=1;" edge="1" parent="1" source="r8q-VQcnBtVLLdjR7hib-2" target="r8q-VQcnBtVLLdjR7hib-11">
          <mxGeometry relative="1" as="geometry" />
        </mxCell>
        <mxCell id="r8q-VQcnBtVLLdjR7hib-16" value="2、调用频控验资" style="edgeLabel;html=1;align=center;verticalAlign=middle;resizable=0;points=[];" vertex="1" connectable="0" parent="r8q-VQcnBtVLLdjR7hib-12">
          <mxGeometry x="-0.0667" y="3" relative="1" as="geometry">
            <mxPoint as="offset" />
          </mxGeometry>
        </mxCell>
        <mxCell id="r8q-VQcnBtVLLdjR7hib-2" value="千目展示服务" style="rounded=1;whiteSpace=wrap;html=1;" vertex="1" parent="1">
          <mxGeometry x="340" y="20" width="120" height="60" as="geometry" />
        </mxCell>
        <mxCell id="r8q-VQcnBtVLLdjR7hib-5" value="画像服务" style="rounded=1;whiteSpace=wrap;html=1;" vertex="1" parent="1">
          <mxGeometry x="190" y="150" width="140" height="70" as="geometry" />
        </mxCell>
        <mxCell id="r8q-VQcnBtVLLdjR7hib-7" value="现有设备验资接口" style="rounded=0;whiteSpace=wrap;html=1;" vertex="1" parent="1">
          <mxGeometry x="210" y="140" width="100" height="30" as="geometry" />
        </mxCell>
        <mxCell id="r8q-VQcnBtVLLdjR7hib-14" value="" style="edgeStyle=none;rounded=0;orthogonalLoop=1;jettySize=auto;html=1;" edge="1" parent="1" source="r8q-VQcnBtVLLdjR7hib-11" target="r8q-VQcnBtVLLdjR7hib-13">
          <mxGeometry relative="1" as="geometry" />
        </mxCell>
        <mxCell id="r8q-VQcnBtVLLdjR7hib-11" value="聚量引擎" style="rounded=1;whiteSpace=wrap;html=1;" vertex="1" parent="1">
          <mxGeometry x="340" y="220" width="120" height="60" as="geometry" />
        </mxCell>
        <mxCell id="r8q-VQcnBtVLLdjR7hib-13" value="千目召回服务" style="rounded=1;whiteSpace=wrap;html=1;" vertex="1" parent="1">
          <mxGeometry x="340" y="340" width="120" height="60" as="geometry" />
        </mxCell>
        <mxCell id="r8q-VQcnBtVLLdjR7hib-17" value="1、验资场景只配置频控过滤器&lt;br&gt;2、验资场景映射到对应的业务场景" style="text;html=1;strokeColor=none;fillColor=none;align=left;verticalAlign=middle;whiteSpace=wrap;rounded=0;" vertex="1" parent="1">
          <mxGeometry x="470" y="340" width="200" height="62.5" as="geometry" />
        </mxCell>
      </root>
    </mxGraphModel>
  </diagram>
</mxfile>
